<svg width="24" height="25" viewBox="0 0 24 25" fill="none" xmlns="http://www.w3.org/2000/svg">
<path d="M6.48 15.7C6.24 15.3 5.76 15.22 5.36 15.38C4.96 15.62 4.88 16.1 5.04 16.5C5.28 16.9 5.76 16.98 6.16 16.82C6.56 16.58 6.64 16.1 6.48 15.7ZM6.16 8.18C5.76 8.02 5.28 8.1 5.04 8.5C4.88 8.9 4.96 9.38 5.36 9.62C5.76 9.78 6.24 9.7 6.48 9.3C6.64 8.9 6.56 8.42 6.16 8.18ZM18.64 9.62C19.04 9.38 19.12 8.9 18.96 8.5C18.72 8.1 18.24 8.02 17.84 8.18C17.44 8.42 17.36 8.9 17.52 9.3C17.76 9.7 18.24 9.78 18.64 9.62ZM5.6 12.5C5.6 12.02 5.28 11.7 4.8 11.7C4.32 11.7 4 12.02 4 12.5C4 12.98 4.32 13.3 4.8 13.3C5.28 13.3 5.6 12.98 5.6 12.5ZM8.16 17.94C7.76 18.02 7.44 18.5 7.6 18.9C7.68 19.3 8.16 19.62 8.56 19.46C8.96 19.38 9.28 18.9 9.12 18.5C9.04 18.1 8.64 17.86 8.16 17.94ZM19.2 11.7C18.72 11.7 18.4 12.02 18.4 12.5C18.4 12.98 18.72 13.3 19.2 13.3C19.68 13.3 20 12.98 20 12.5C20 12.02 19.68 11.7 19.2 11.7ZM18.64 15.38C18.24 15.14 17.76 15.3 17.52 15.7C17.28 16.1 17.44 16.58 17.84 16.82C18.24 17.06 18.72 16.9 18.96 16.5C19.12 16.1 19.04 15.62 18.64 15.38ZM16 5.54C15.6 5.3 15.12 5.46 14.88 5.86C14.64 6.26 14.8 6.74 15.2 6.98C15.6 7.22 16.08 7.06 16.32 6.66C16.48 6.26 16.4 5.78 16 5.54ZM15.84 17.94C15.44 17.86 14.96 18.1 14.88 18.5C14.8 18.9 15.04 19.38 15.44 19.46C15.84 19.54 16.32 19.3 16.4 18.9C16.48 18.5 16.24 18.1 15.84 17.94ZM12 18.9C11.52 18.9 11.2 19.22 11.2 19.7C11.2 20.18 11.52 20.5 12 20.5C12.48 20.5 12.8 20.18 12.8 19.7C12.8 19.22 12.48 18.9 12 18.9ZM12 4.5C11.52 4.5 11.2 4.82 11.2 5.3C11.2 5.78 11.52 6.1 12 6.1C12.48 6.1 12.8 5.78 12.8 5.3C12.8 4.82 12.48 4.5 12 4.5Z" fill="#F4F4F4"/>
</svg>
