<svg width="24" height="24" viewBox="0 0 24 24" fill="none" xmlns="http://www.w3.org/2000/svg">
<mask id="path-1-outside-1_6454_278345" maskUnits="userSpaceOnUse" x="3" y="3.01367" width="20" height="18" fill="black">
<rect fill="white" x="3" y="3.01367" width="20" height="18"/>
<path d="M21.3229 11.7341H21.2261V9.09037C21.2261 8.26526 20.6151 7.58221 19.8221 7.46492V6.87014C19.8221 5.96296 19.0841 5.22495 18.1769 5.22495H17.448L17.0642 4.20202C17.038 4.13217 16.9859 4.07508 16.9187 4.04261C16.8515 4.01014 16.7744 4.00477 16.7034 4.02763L12.987 5.22495H5.40035C4.62827 5.22495 4 5.85321 4 6.62529V18.3406C4 19.2478 4.73801 19.9858 5.64519 19.9858H19.5809C20.4881 19.9858 21.2261 19.2478 21.2261 18.3406V15.6969H21.3229C21.6964 15.6969 22.0003 15.393 22.0003 15.0194V12.4115C22.0003 12.0382 21.6964 11.7341 21.3229 11.7341ZM17.6659 5.80579H18.1769C18.7637 5.80579 19.2414 6.28329 19.2414 6.87033V7.44537H18.2812L18.2233 7.29111L17.6659 5.80579ZM16.8278 5.22514L17.2995 6.48206L17.6611 7.44537H7.98891L16.6178 4.66558L16.8278 5.22514ZM5.40035 5.80579H11.1844L7.53793 6.98065L6.09539 7.44537H5.40035C4.9484 7.44537 4.58066 7.07762 4.58066 6.62568C4.58066 6.17374 4.9484 5.80579 5.40035 5.80579ZM20.6455 18.3406C20.6455 18.9276 20.1678 19.4051 19.5809 19.4051H5.64519C5.36295 19.4048 5.09236 19.2926 4.89279 19.093C4.69322 18.8934 4.58096 18.6228 4.58066 18.3406V7.76028C4.58472 7.76338 4.58956 7.76531 4.59382 7.76841C4.64453 7.80422 4.69737 7.83693 4.75272 7.86596C4.76298 7.87138 4.77382 7.87602 4.78427 7.88125C4.83556 7.90661 4.8884 7.92886 4.94298 7.94783C4.95227 7.95112 4.96118 7.9548 4.97047 7.9579C5.03086 7.97745 5.09299 7.99216 5.15667 8.00338C5.17079 8.0059 5.18512 8.00783 5.19944 8.00996C5.26525 8.01945 5.33202 8.02603 5.40035 8.02603H19.5809C20.1678 8.02603 20.6455 8.50352 20.6455 9.09056V11.7343H18.7219C17.8148 11.7343 17.0767 12.4723 17.0767 13.3795V14.0519C17.0767 14.9591 17.8148 15.6971 18.7219 15.6971H20.6455V18.3406ZM21.4197 15.0194C21.4197 15.0451 21.4095 15.0697 21.3913 15.0879C21.3732 15.106 21.3485 15.1162 21.3229 15.1162H18.7219C18.4397 15.1159 18.1691 15.0037 17.9695 14.8041C17.77 14.6045 17.6577 14.3339 17.6574 14.0517V13.3793C17.6574 12.7922 18.1351 12.3147 18.7219 12.3147H21.3229C21.3485 12.3147 21.3732 12.3249 21.3913 12.3431C21.4095 12.3612 21.4197 12.3859 21.4197 12.4115V15.0194Z"/>
</mask>
<path d="M21.3229 11.7341H21.2261V9.09037C21.2261 8.26526 20.6151 7.58221 19.8221 7.46492V6.87014C19.8221 5.96296 19.0841 5.22495 18.1769 5.22495H17.448L17.0642 4.20202C17.038 4.13217 16.9859 4.07508 16.9187 4.04261C16.8515 4.01014 16.7744 4.00477 16.7034 4.02763L12.987 5.22495H5.40035C4.62827 5.22495 4 5.85321 4 6.62529V18.3406C4 19.2478 4.73801 19.9858 5.64519 19.9858H19.5809C20.4881 19.9858 21.2261 19.2478 21.2261 18.3406V15.6969H21.3229C21.6964 15.6969 22.0003 15.393 22.0003 15.0194V12.4115C22.0003 12.0382 21.6964 11.7341 21.3229 11.7341ZM17.6659 5.80579H18.1769C18.7637 5.80579 19.2414 6.28329 19.2414 6.87033V7.44537H18.2812L18.2233 7.29111L17.6659 5.80579ZM16.8278 5.22514L17.2995 6.48206L17.6611 7.44537H7.98891L16.6178 4.66558L16.8278 5.22514ZM5.40035 5.80579H11.1844L7.53793 6.98065L6.09539 7.44537H5.40035C4.9484 7.44537 4.58066 7.07762 4.58066 6.62568C4.58066 6.17374 4.9484 5.80579 5.40035 5.80579ZM20.6455 18.3406C20.6455 18.9276 20.1678 19.4051 19.5809 19.4051H5.64519C5.36295 19.4048 5.09236 19.2926 4.89279 19.093C4.69322 18.8934 4.58096 18.6228 4.58066 18.3406V7.76028C4.58472 7.76338 4.58956 7.76531 4.59382 7.76841C4.64453 7.80422 4.69737 7.83693 4.75272 7.86596C4.76298 7.87138 4.77382 7.87602 4.78427 7.88125C4.83556 7.90661 4.8884 7.92886 4.94298 7.94783C4.95227 7.95112 4.96118 7.9548 4.97047 7.9579C5.03086 7.97745 5.09299 7.99216 5.15667 8.00338C5.17079 8.0059 5.18512 8.00783 5.19944 8.00996C5.26525 8.01945 5.33202 8.02603 5.40035 8.02603H19.5809C20.1678 8.02603 20.6455 8.50352 20.6455 9.09056V11.7343H18.7219C17.8148 11.7343 17.0767 12.4723 17.0767 13.3795V14.0519C17.0767 14.9591 17.8148 15.6971 18.7219 15.6971H20.6455V18.3406ZM21.4197 15.0194C21.4197 15.0451 21.4095 15.0697 21.3913 15.0879C21.3732 15.106 21.3485 15.1162 21.3229 15.1162H18.7219C18.4397 15.1159 18.1691 15.0037 17.9695 14.8041C17.77 14.6045 17.6577 14.3339 17.6574 14.0517V13.3793C17.6574 12.7922 18.1351 12.3147 18.7219 12.3147H21.3229C21.3485 12.3147 21.3732 12.3249 21.3913 12.3431C21.4095 12.3612 21.4197 12.3859 21.4197 12.4115V15.0194Z" fill="#F4F4F4"/>
<path d="M21.3229 11.7341H21.2261V9.09037C21.2261 8.26526 20.6151 7.58221 19.8221 7.46492V6.87014C19.8221 5.96296 19.0841 5.22495 18.1769 5.22495H17.448L17.0642 4.20202C17.038 4.13217 16.9859 4.07508 16.9187 4.04261C16.8515 4.01014 16.7744 4.00477 16.7034 4.02763L12.987 5.22495H5.40035C4.62827 5.22495 4 5.85321 4 6.62529V18.3406C4 19.2478 4.73801 19.9858 5.64519 19.9858H19.5809C20.4881 19.9858 21.2261 19.2478 21.2261 18.3406V15.6969H21.3229C21.6964 15.6969 22.0003 15.393 22.0003 15.0194V12.4115C22.0003 12.0382 21.6964 11.7341 21.3229 11.7341ZM17.6659 5.80579H18.1769C18.7637 5.80579 19.2414 6.28329 19.2414 6.87033V7.44537H18.2812L18.2233 7.29111L17.6659 5.80579ZM16.8278 5.22514L17.2995 6.48206L17.6611 7.44537H7.98891L16.6178 4.66558L16.8278 5.22514ZM5.40035 5.80579H11.1844L7.53793 6.98065L6.09539 7.44537H5.40035C4.9484 7.44537 4.58066 7.07762 4.58066 6.62568C4.58066 6.17374 4.9484 5.80579 5.40035 5.80579ZM20.6455 18.3406C20.6455 18.9276 20.1678 19.4051 19.5809 19.4051H5.64519C5.36295 19.4048 5.09236 19.2926 4.89279 19.093C4.69322 18.8934 4.58096 18.6228 4.58066 18.3406V7.76028C4.58472 7.76338 4.58956 7.76531 4.59382 7.76841C4.64453 7.80422 4.69737 7.83693 4.75272 7.86596C4.76298 7.87138 4.77382 7.87602 4.78427 7.88125C4.83556 7.90661 4.8884 7.92886 4.94298 7.94783C4.95227 7.95112 4.96118 7.9548 4.97047 7.9579C5.03086 7.97745 5.09299 7.99216 5.15667 8.00338C5.17079 8.0059 5.18512 8.00783 5.19944 8.00996C5.26525 8.01945 5.33202 8.02603 5.40035 8.02603H19.5809C20.1678 8.02603 20.6455 8.50352 20.6455 9.09056V11.7343H18.7219C17.8148 11.7343 17.0767 12.4723 17.0767 13.3795V14.0519C17.0767 14.9591 17.8148 15.6971 18.7219 15.6971H20.6455V18.3406ZM21.4197 15.0194C21.4197 15.0451 21.4095 15.0697 21.3913 15.0879C21.3732 15.106 21.3485 15.1162 21.3229 15.1162H18.7219C18.4397 15.1159 18.1691 15.0037 17.9695 14.8041C17.77 14.6045 17.6577 14.3339 17.6574 14.0517V13.3793C17.6574 12.7922 18.1351 12.3147 18.7219 12.3147H21.3229C21.3485 12.3147 21.3732 12.3249 21.3913 12.3431C21.4095 12.3612 21.4197 12.3859 21.4197 12.4115V15.0194Z" stroke="#F4F4F4" stroke-width="0.4" mask="url(#path-1-outside-1_6454_278345)"/>
<path d="M19.4744 12.875C19.2515 12.8752 19.0379 12.9638 18.8803 13.1214C18.7227 13.2789 18.634 13.4926 18.6338 13.7154C18.6338 14.179 19.0108 14.5558 19.4744 14.5558C19.9379 14.5558 20.3148 14.1788 20.3148 13.7154C20.3145 13.4926 20.2259 13.279 20.0684 13.1214C19.9108 12.9639 19.6972 12.8753 19.4744 12.875ZM19.4744 13.9753C19.3312 13.9753 19.2144 13.8588 19.2144 13.7156C19.2163 13.6479 19.2445 13.5836 19.293 13.5364C19.3415 13.4892 19.4066 13.4627 19.4743 13.4627C19.542 13.4627 19.607 13.4892 19.6556 13.5364C19.7041 13.5836 19.7323 13.6479 19.7341 13.7156C19.7341 13.8586 19.6176 13.9753 19.4744 13.9753Z" fill="#F4F4F4"/>
</svg>
