<svg width="201" height="201" viewBox="0 0 201 201" fill="none" xmlns="http://www.w3.org/2000/svg">
<path d="M34.7771 66.8391C44.3816 66.8391 53.0871 70.8689 59.2415 77.3072C64.5217 83.2846 67.7407 91.1449 67.7407 99.7299C67.7407 118.416 52.588 133.563 33.8926 133.592C24.2883 133.592 15.5831 129.562 9.42893 123.124C4.14871 117.147 0.929688 109.287 0.929688 100.702C0.929688 82.0147 16.083 66.8391 34.7771 66.8391Z" fill="url(#paint0_radial_6139_1930)" stroke="url(#paint1_linear_6139_1930)"/>
<path d="M34.7402 74.519C42.1541 74.519 48.8742 77.6293 53.6256 82.599C57.7013 87.2137 60.1858 93.2812 60.1858 99.9082C60.1858 114.334 48.488 126.028 34.055 126.051C26.641 126.051 19.9209 122.94 15.1695 117.971C11.0938 113.356 8.60938 107.288 8.60938 100.662C8.60938 86.2349 20.3081 74.519 34.7402 74.519Z" fill="url(#paint2_radial_6139_1930)"/>
<path d="M34.7402 74.519C42.1541 74.519 48.8742 77.6293 53.6256 82.599C57.7013 87.2137 60.1858 93.2812 60.1858 99.9082C60.1858 114.334 48.488 126.028 34.055 126.051C26.641 126.051 19.9209 122.94 15.1695 117.971C11.0938 113.356 8.60938 107.288 8.60938 100.662C8.60938 86.2349 20.3081 74.519 34.7402 74.519Z" fill="url(#paint3_linear_6139_1930)" fill-opacity="0.2"/>
<path d="M34.7402 74.519C42.1541 74.519 48.8742 77.6293 53.6256 82.599C57.7013 87.2137 60.1858 93.2812 60.1858 99.9082C60.1858 114.334 48.488 126.028 34.055 126.051C26.641 126.051 19.9209 122.94 15.1695 117.971C11.0938 113.356 8.60938 107.288 8.60938 100.662C8.60938 86.2349 20.3081 74.519 34.7402 74.519Z" fill="url(#paint4_linear_6139_1930)" fill-opacity="0.2"/>
<path d="M34.7402 74.519C42.1541 74.519 48.8742 77.6293 53.6256 82.599C57.7013 87.2137 60.1858 93.2812 60.1858 99.9082C60.1858 114.334 48.488 126.028 34.055 126.051C26.641 126.051 19.9209 122.94 15.1695 117.971C11.0938 113.356 8.60938 107.288 8.60938 100.662C8.60938 86.2349 20.3081 74.519 34.7402 74.519Z" stroke="url(#paint5_linear_6139_1930)"/>
<path d="M34.7402 74.519C42.1541 74.519 48.8742 77.6293 53.6256 82.599C57.7013 87.2137 60.1858 93.2812 60.1858 99.9082C60.1858 114.334 48.488 126.028 34.055 126.051C26.641 126.051 19.9209 122.94 15.1695 117.971C11.0938 113.356 8.60938 107.288 8.60938 100.662C8.60938 86.2349 20.3081 74.519 34.7402 74.519Z" stroke="url(#paint6_linear_6139_1930)" stroke-opacity="0.2"/>
<path d="M34.7402 74.519C42.1541 74.519 48.8742 77.6293 53.6256 82.599C57.7013 87.2137 60.1858 93.2812 60.1858 99.9082C60.1858 114.334 48.488 126.028 34.055 126.051C26.641 126.051 19.9209 122.94 15.1695 117.971C11.0938 113.356 8.60938 107.288 8.60938 100.662C8.60938 86.2349 20.3081 74.519 34.7402 74.519Z" stroke="url(#paint7_linear_6139_1930)"/>
<path d="M34.7402 74.519C42.1541 74.519 48.8742 77.6293 53.6256 82.599C57.7013 87.2137 60.1858 93.2812 60.1858 99.9082C60.1858 114.334 48.488 126.028 34.055 126.051C26.641 126.051 19.9209 122.94 15.1695 117.971C11.0938 113.356 8.60938 107.288 8.60938 100.662C8.60938 86.2349 20.3081 74.519 34.7402 74.519Z" stroke="url(#paint8_linear_6139_1930)"/>
<g filter="url(#filter0_f_6139_1930)">
<path d="M64.8371 84.8159C66.7223 89.0855 67.7828 93.7967 67.7828 98.7729C67.7828 117.736 52.406 133.106 33.4354 133.106C22.0354 133.106 11.9315 127.541 5.68652 119.002C6.68808 120.621 7.83692 122.152 9.10359 123.566C15.3486 130.103 24.1858 134.195 33.9362 134.195C52.9068 134.195 68.2836 118.825 68.2836 99.8624C68.3131 94.4739 67.0758 89.3505 64.8371 84.8159Z" fill="#06017C"/>
</g>
<g filter="url(#filter1_f_6139_1930)">
<path d="M47.3016 109.979H43.9313V94.3767C43.9313 93.8679 43.3281 93.6016 42.9451 93.9345L36.597 99.4793V109.97H33.3464V98.6518C33.3464 97.9766 33.1836 97.3584 32.8581 96.8115C32.5325 96.2599 32.0921 95.8224 31.5415 95.5037C30.9958 95.1851 30.3686 95.0234 29.684 95.0234H29.5644C28.8798 95.0234 28.2526 95.1851 27.7068 95.5037C27.1563 95.8224 26.7159 96.2599 26.3903 96.8115C26.0696 97.3584 25.902 97.9766 25.902 98.6518V109.97H22.6514V98.6518C22.6514 97.4772 22.929 96.393 23.4748 95.4134C24.0253 94.4338 24.8248 93.6444 25.8589 93.069C26.8882 92.4936 28.1425 92.1987 29.5883 92.1987H29.6505C31.0915 92.1987 32.3506 92.4888 33.3799 93.069C34.414 93.6491 35.2183 94.4385 35.764 95.4134C35.8406 95.5465 35.9076 95.6845 35.9747 95.8224L39.4312 92.8074C39.5173 92.7313 39.6274 92.6885 39.7471 92.6885H46.8229C47.0862 92.6885 47.2968 92.8978 47.2968 93.1593V109.974L47.3016 109.979Z" fill="#544DE9"/>
</g>
<g filter="url(#filter2_di_6139_1930)">
<path d="M46.0917 108.365H42.7213V92.7625C42.7213 92.2536 42.1181 91.9873 41.7351 92.3202L35.3871 97.865V108.355H32.1364V97.0376C32.1364 96.3623 31.9737 95.7441 31.6481 95.1972C31.3226 94.6456 30.8821 94.2081 30.3316 93.8895C29.7858 93.5709 29.1587 93.4092 28.4741 93.4092H28.3544C27.6698 93.4092 27.0426 93.5709 26.4969 93.8895C25.9463 94.2081 25.5059 94.6456 25.1804 95.1972C24.8596 95.7441 24.692 96.3623 24.692 97.0376V108.355H21.4414V97.0376C21.4414 95.863 21.7191 94.7787 22.2648 93.7991C22.8154 92.8195 23.6149 92.0301 24.649 91.4547C25.6782 90.8793 26.9325 90.5845 28.3783 90.5845H28.4406C29.8816 90.5845 31.1407 90.8746 32.1699 91.4547C33.204 92.0349 34.0083 92.8243 34.5541 93.7991C34.6307 93.9323 34.6977 94.0702 34.7647 94.2081L38.2212 91.1932C38.3074 91.1171 38.4175 91.0743 38.5372 91.0743H45.6129C45.8762 91.0743 46.0869 91.2835 46.0869 91.5451V108.36L46.0917 108.365Z" fill="#E8E7FF"/>
<path d="M46.0917 108.365H42.7213V92.7625C42.7213 92.2536 42.1181 91.9873 41.7351 92.3202L35.3871 97.865V108.355H32.1364V97.0376C32.1364 96.3623 31.9737 95.7441 31.6481 95.1972C31.3226 94.6456 30.8821 94.2081 30.3316 93.8895C29.7858 93.5709 29.1587 93.4092 28.4741 93.4092H28.3544C27.6698 93.4092 27.0426 93.5709 26.4969 93.8895C25.9463 94.2081 25.5059 94.6456 25.1804 95.1972C24.8596 95.7441 24.692 96.3623 24.692 97.0376V108.355H21.4414V97.0376C21.4414 95.863 21.7191 94.7787 22.2648 93.7991C22.8154 92.8195 23.6149 92.0301 24.649 91.4547C25.6782 90.8793 26.9325 90.5845 28.3783 90.5845H28.4406C29.8816 90.5845 31.1407 90.8746 32.1699 91.4547C33.204 92.0349 34.0083 92.8243 34.5541 93.7991C34.6307 93.9323 34.6977 94.0702 34.7647 94.2081L38.2212 91.1932C38.3074 91.1171 38.4175 91.0743 38.5372 91.0743H45.6129C45.8762 91.0743 46.0869 91.2835 46.0869 91.5451V108.36L46.0917 108.365Z" fill="url(#paint9_linear_6139_1930)" fill-opacity="0.2"/>
<path d="M46.0917 108.365H42.7213V92.7625C42.7213 92.2536 42.1181 91.9873 41.7351 92.3202L35.3871 97.865V108.355H32.1364V97.0376C32.1364 96.3623 31.9737 95.7441 31.6481 95.1972C31.3226 94.6456 30.8821 94.2081 30.3316 93.8895C29.7858 93.5709 29.1587 93.4092 28.4741 93.4092H28.3544C27.6698 93.4092 27.0426 93.5709 26.4969 93.8895C25.9463 94.2081 25.5059 94.6456 25.1804 95.1972C24.8596 95.7441 24.692 96.3623 24.692 97.0376V108.355H21.4414V97.0376C21.4414 95.863 21.7191 94.7787 22.2648 93.7991C22.8154 92.8195 23.6149 92.0301 24.649 91.4547C25.6782 90.8793 26.9325 90.5845 28.3783 90.5845H28.4406C29.8816 90.5845 31.1407 90.8746 32.1699 91.4547C33.204 92.0349 34.0083 92.8243 34.5541 93.7991C34.6307 93.9323 34.6977 94.0702 34.7647 94.2081L38.2212 91.1932C38.3074 91.1171 38.4175 91.0743 38.5372 91.0743H45.6129C45.8762 91.0743 46.0869 91.2835 46.0869 91.5451V108.36L46.0917 108.365Z" fill="url(#paint10_linear_6139_1930)" fill-opacity="0.2"/>
<path d="M45.5869 91.5743V107.865H43.2213V92.7625C43.2213 91.8115 42.1037 91.3374 41.4071 91.9428L41.4062 91.9436L35.0581 97.4884L34.8871 97.6379V97.865V107.855H32.6364V97.0376C32.6364 96.2793 32.4528 95.5719 32.0782 94.9423C31.7095 94.3178 31.2077 93.819 30.5828 93.4572C29.9541 93.0904 29.2389 92.9092 28.4741 92.9092H28.3544C27.5896 92.9092 26.8743 93.0904 26.2456 93.4572C25.6205 93.8192 25.1185 94.3182 24.7497 94.9431L24.7491 94.9443C24.3818 95.5705 24.192 96.2765 24.192 97.0376V107.855H21.9414V97.0376C21.9414 95.9452 22.1987 94.9455 22.7012 94.0433C23.2045 93.1481 23.9355 92.4239 24.8921 91.8916L24.8929 91.8911C25.8332 91.3655 26.9997 91.0845 28.3783 91.0845H28.4406C29.8159 91.0845 30.986 91.3614 31.9244 91.8903L31.9253 91.8908C32.8846 92.429 33.62 93.1543 34.1178 94.0434L34.1177 94.0434L34.1207 94.0485C34.1871 94.164 34.2467 94.2862 34.315 94.4267L34.6007 95.0146L35.0934 94.5849L38.5449 91.5743H45.5869Z" stroke="url(#paint11_linear_6139_1930)"/>
</g>
<path d="M132.219 94.9205C132.16 95.0898 132.065 95.2438 131.939 95.3713C131.832 95.4612 131.695 95.5078 131.555 95.502C131.422 95.5026 131.293 95.4563 131.19 95.3713C131.053 95.2497 130.95 95.0942 130.892 94.9205L125.979 81.4039H122.631L128.144 96.0338C128.396 96.761 128.87 97.3913 129.498 97.8366C130.098 98.253 130.811 98.4762 131.542 98.4762C132.272 98.4762 132.986 98.253 133.586 97.8366C134.204 97.3809 134.674 96.7541 134.939 96.0338L140.417 81.4039H137.141L132.219 94.9205Z" fill="#5F58FF"/>
<path d="M199.83 81.4039H196.455L192.02 88.1645H187.255V81.4039H184.21V98.08H187.255V90.7966H192.155L196.983 98.098H200.43L194.637 89.2282L199.83 81.4039Z" fill="#5F58FF"/>
<path d="M114.441 81.7056C113.848 81.2822 113.136 81.0567 112.406 81.0611C111.672 81.0533 110.954 81.2756 110.354 81.6966C109.736 82.1532 109.266 82.7798 109 83.4994L103.5 98.1518H106.776L108.129 94.3974H116.553L117.906 98.1518H121.25L115.781 83.522C115.534 82.7922 115.066 82.1574 114.441 81.7056ZM109.104 91.7789L111.712 84.6352C111.771 84.4665 111.867 84.3127 111.991 84.1845C112.099 84.0964 112.235 84.0501 112.375 84.0538C112.508 84.0554 112.637 84.1014 112.74 84.1845C112.876 84.3074 112.978 84.4624 113.038 84.6352L115.628 91.7789H109.104Z" fill="#5F58FF"/>
<path d="M157.701 90.6029C158.139 90.1382 158.478 89.5892 158.696 88.9895C158.915 88.3897 159.009 87.7517 158.973 87.1144V86.1499C159.01 85.5126 158.916 84.8745 158.697 84.2746C158.478 83.6748 158.139 83.1259 157.701 82.6615C157.227 82.2268 156.67 81.8915 156.064 81.6755C155.458 81.4595 154.815 81.3672 154.172 81.404H145.081V98.0801H148.127V91.8784H152.972L156.627 98.1116H160.106L156.216 91.5358C156.777 91.3387 157.287 91.0201 157.71 90.6029H157.701ZM155.928 86.9206C155.946 87.2361 155.901 87.552 155.796 87.8499C155.69 88.1478 155.526 88.4218 155.314 88.6558C155.087 88.8701 154.819 89.0358 154.526 89.1427C154.232 89.2497 153.92 89.2956 153.608 89.2778H148.127V83.9865H153.613C153.924 83.9704 154.235 84.0172 154.527 84.124C154.819 84.2309 155.087 84.3957 155.314 84.6085C155.526 84.8428 155.689 85.1169 155.793 85.4149C155.898 85.7128 155.942 86.0286 155.923 86.3437L155.928 86.9206Z" fill="#5F58FF"/>
<path d="M171.899 88.7235C171.759 88.9624 171.606 89.377 171.29 89.386H171.213C170.897 89.386 170.739 88.9624 170.604 88.7235C169.675 86.9838 168.005 83.8784 166.643 81.3455H163.033L165.804 86.3483L167.491 89.395C167.796 90.007 168.147 90.5947 168.542 91.1528C168.855 91.5302 169.244 91.8374 169.684 92.0542V98.1072H172.815V92.0632C173.254 91.8451 173.643 91.5381 173.956 91.1618C174.352 90.6043 174.704 90.0166 175.008 89.404L176.691 86.3618L179.461 81.359H175.851L171.895 88.7235H171.899Z" fill="#5F58FF"/>
<path d="M98.7021 81.4311H91.8937C91.7824 81.4302 91.6748 81.4703 91.5914 81.5438L88.23 84.4959C88.1759 84.3877 88.1263 84.2796 88.0631 84.1714C87.5225 83.2229 86.729 82.4428 85.7711 81.9179C84.6688 81.3297 83.4335 81.0348 82.1841 81.0615H82.1255C80.87 81.0243 79.6263 81.3132 78.516 81.8998C77.5558 82.4233 76.7605 83.2037 76.2194 84.1534C75.6848 85.1182 75.4111 86.2056 75.4253 87.3083V98.1883H78.5521V87.3038C78.5358 86.6731 78.6918 86.0499 79.0032 85.501C79.3114 84.9667 79.7573 84.5247 80.2945 84.2211C80.8317 83.9175 81.4406 83.7634 82.0578 83.7748H82.2157C82.8328 83.7634 83.4418 83.9175 83.979 84.2211C84.5162 84.5247 84.9621 84.9667 85.2702 85.501C85.5823 86.0496 85.7383 86.673 85.7214 87.3038V98.1883H88.8482V87.9979L94.9617 82.63C95.0445 82.5586 95.146 82.5124 95.2542 82.4967C95.3624 82.4811 95.4728 82.4967 95.5724 82.5417C95.672 82.5867 95.7567 82.6593 95.8164 82.7508C95.876 82.8423 95.9083 82.9489 95.9092 83.0582V98.1613H99.1488V81.8863C99.1494 81.8271 99.1383 81.7684 99.1162 81.7135C99.094 81.6586 99.0613 81.6086 99.0198 81.5663C98.9783 81.524 98.9289 81.4903 98.8744 81.4671C98.8199 81.4439 98.7613 81.4317 98.7021 81.4311Z" fill="#5F58FF"/>
<path d="M75.3807 102.676H86.1087V105.124H78.1407V109.996H84.7167V112.372H78.1407V119.476H75.3807V102.676ZM98.6189 117.22V119.476H97.2509C96.4349 119.476 95.8589 119.308 95.5229 118.972C95.1629 118.636 94.9949 118.156 94.9949 117.508C94.0589 118.924 92.7149 119.62 90.9389 119.62C89.5469 119.62 88.4429 119.308 87.6269 118.66C86.7869 118.036 86.3789 117.148 86.3789 116.02C86.3789 114.772 86.8109 113.788 87.7229 113.116C88.6109 112.444 89.9069 112.084 91.6349 112.084H94.7309V111.34C94.7309 110.668 94.4909 110.116 94.0109 109.732C93.5309 109.348 92.8589 109.132 92.0189 109.132C91.2509 109.132 90.6269 109.3 90.1469 109.636C89.6669 109.972 89.3789 110.404 89.2829 110.932H86.7389C86.8589 109.708 87.4109 108.748 88.3709 108.076C89.3309 107.404 90.5789 107.044 92.1389 107.044C93.7709 107.044 95.0429 107.428 95.9549 108.196C96.8429 108.964 97.2989 110.068 97.2989 111.508V116.356C97.2989 116.932 97.5629 117.22 98.1149 117.22H98.6189ZM94.7309 114.004H91.5149C90.6989 114.004 90.0989 114.172 89.6669 114.484C89.2349 114.796 89.0189 115.252 89.0189 115.852C89.0189 116.38 89.2109 116.812 89.6189 117.124C90.0269 117.46 90.5789 117.604 91.2989 117.604C92.3549 117.604 93.1949 117.316 93.7949 116.74C94.3949 116.164 94.7069 115.396 94.7309 114.436V114.004ZM111.047 107.188V119.476H108.767L108.479 117.916C107.543 119.068 106.271 119.62 104.687 119.62C103.247 119.62 102.071 119.188 101.183 118.276C100.271 117.388 99.8388 115.948 99.8388 113.956V107.188H102.431V113.692C102.431 114.892 102.671 115.804 103.151 116.428C103.631 117.052 104.327 117.364 105.287 117.364C106.271 117.364 107.039 117.004 107.615 116.284C108.167 115.564 108.455 114.556 108.455 113.284V107.188H111.047ZM123.081 118.42C122.073 119.236 120.801 119.62 119.265 119.62C118.041 119.62 116.961 119.38 116.049 118.852C115.113 118.324 114.393 117.58 113.889 116.62C113.385 115.66 113.145 114.556 113.145 113.308C113.145 112.06 113.385 110.98 113.913 110.02C114.417 109.084 115.137 108.364 116.073 107.836C117.009 107.308 118.089 107.044 119.337 107.044C120.873 107.044 122.121 107.452 123.105 108.268C124.065 109.084 124.689 110.164 124.929 111.556H122.265C122.073 110.86 121.737 110.308 121.209 109.876C120.681 109.468 120.033 109.252 119.265 109.252C118.209 109.252 117.369 109.636 116.745 110.38C116.121 111.148 115.809 112.108 115.809 113.308C115.809 114.532 116.121 115.516 116.745 116.284C117.369 117.052 118.209 117.412 119.265 117.412C120.057 117.412 120.729 117.22 121.257 116.788C121.785 116.356 122.121 115.78 122.289 115.06H124.929C124.689 116.5 124.065 117.604 123.081 118.42ZM127.084 110.044C127.588 109.084 128.284 108.364 129.196 107.836C130.108 107.308 131.14 107.044 132.316 107.044C133.492 107.044 134.524 107.284 135.436 107.764C136.348 108.244 137.044 108.94 137.572 109.804C138.1 110.692 138.364 111.724 138.388 112.9C138.388 113.236 138.364 113.548 138.316 113.884H129.052V114.028C129.1 115.108 129.436 115.948 130.06 116.572C130.66 117.196 131.476 117.508 132.484 117.508C133.276 117.508 133.948 117.34 134.5 116.956C135.028 116.572 135.388 116.044 135.58 115.348H138.172C137.932 116.596 137.332 117.628 136.348 118.42C135.364 119.236 134.14 119.62 132.676 119.62C131.38 119.62 130.276 119.38 129.316 118.852C128.356 118.324 127.636 117.604 127.108 116.644C126.58 115.708 126.34 114.604 126.34 113.356C126.34 112.108 126.58 111.004 127.084 110.044ZM135.748 111.988C135.628 111.1 135.268 110.404 134.668 109.9C134.068 109.396 133.324 109.132 132.412 109.132C131.548 109.132 130.828 109.396 130.204 109.924C129.58 110.452 129.244 111.124 129.148 111.988H135.748ZM141.182 109.468H139.046V107.188H141.182V103.756H143.798V107.188H146.75V109.468H143.798V115.876C143.798 116.356 143.894 116.716 144.086 116.908C144.278 117.1 144.59 117.196 145.07 117.196H147.038V119.476H144.542C143.366 119.476 142.502 119.212 141.974 118.66C141.446 118.132 141.182 117.292 141.182 116.14V109.468Z" fill="#5F58FF"/>
<defs>
<filter id="filter0_f_6139_1930" x="1.68652" y="80.8159" width="70.5977" height="57.3795" filterUnits="userSpaceOnUse" color-interpolation-filters="sRGB">
<feFlood flood-opacity="0" result="BackgroundImageFix"/>
<feBlend mode="normal" in="SourceGraphic" in2="BackgroundImageFix" result="shape"/>
<feGaussianBlur stdDeviation="2" result="effect1_foregroundBlur_6139_1930"/>
</filter>
<filter id="filter1_f_6139_1930" x="12.6514" y="82.1987" width="44.6504" height="37.7805" filterUnits="userSpaceOnUse" color-interpolation-filters="sRGB">
<feFlood flood-opacity="0" result="BackgroundImageFix"/>
<feBlend mode="normal" in="SourceGraphic" in2="BackgroundImageFix" result="shape"/>
<feGaussianBlur stdDeviation="5" result="effect1_foregroundBlur_6139_1930"/>
</filter>
<filter id="filter2_di_6139_1930" x="20.4414" y="89.5845" width="28.6504" height="21.7805" filterUnits="userSpaceOnUse" color-interpolation-filters="sRGB">
<feFlood flood-opacity="0" result="BackgroundImageFix"/>
<feColorMatrix in="SourceAlpha" type="matrix" values="0 0 0 0 0 0 0 0 0 0 0 0 0 0 0 0 0 0 127 0" result="hardAlpha"/>
<feOffset dx="1" dy="1"/>
<feGaussianBlur stdDeviation="1"/>
<feComposite in2="hardAlpha" operator="out"/>
<feColorMatrix type="matrix" values="0 0 0 0 0.0235294 0 0 0 0 0.00392157 0 0 0 0 0.486275 0 0 0 0.3 0"/>
<feBlend mode="normal" in2="BackgroundImageFix" result="effect1_dropShadow_6139_1930"/>
<feBlend mode="normal" in="SourceGraphic" in2="effect1_dropShadow_6139_1930" result="shape"/>
<feColorMatrix in="SourceAlpha" type="matrix" values="0 0 0 0 0 0 0 0 0 0 0 0 0 0 0 0 0 0 127 0" result="hardAlpha"/>
<feOffset dy="1"/>
<feComposite in2="hardAlpha" operator="arithmetic" k2="-1" k3="1"/>
<feColorMatrix type="matrix" values="0 0 0 0 1 0 0 0 0 1 0 0 0 0 1 0 0 0 0.3 0"/>
<feBlend mode="normal" in2="shape" result="effect2_innerShadow_6139_1930"/>
</filter>
<radialGradient id="paint0_radial_6139_1930" cx="0" cy="0" r="1" gradientUnits="userSpaceOnUse" gradientTransform="translate(10.5319 66.3391) rotate(63.435) scale(85.8393 85.8035)">
<stop stop-color="#807AFF"/>
<stop offset="0.435789" stop-color="#6E67FF"/>
<stop offset="0.963542" stop-color="#4D47EB"/>
</radialGradient>
<linearGradient id="paint1_linear_6139_1930" x1="17.6035" y1="75.8352" x2="39.4243" y2="119.275" gradientUnits="userSpaceOnUse">
<stop stop-color="#9F9FA3"/>
<stop offset="0.432899" stop-color="#4B45E7" stop-opacity="0"/>
</linearGradient>
<radialGradient id="paint2_radial_6139_1930" cx="0" cy="0" r="1" gradientUnits="userSpaceOnUse" gradientTransform="translate(52.5592 126.551) rotate(-111.609) scale(66.9339 66.906)">
<stop offset="0.0625" stop-color="#635CFC"/>
<stop offset="1" stop-color="#6862FD"/>
</radialGradient>
<linearGradient id="paint3_linear_6139_1930" x1="16.5953" y1="77.6558" x2="57.4083" y2="97.0521" gradientUnits="userSpaceOnUse">
<stop stop-color="#3B34D0"/>
<stop offset="1" stop-color="#5952F3" stop-opacity="0"/>
</linearGradient>
<linearGradient id="paint4_linear_6139_1930" x1="31.5466" y1="141.502" x2="38.012" y2="103.113" gradientUnits="userSpaceOnUse">
<stop stop-color="#150F96"/>
<stop offset="1" stop-color="#342EC8" stop-opacity="0"/>
</linearGradient>
<linearGradient id="paint5_linear_6139_1930" x1="20.2321" y1="143.522" x2="34.3752" y2="116.853" gradientUnits="userSpaceOnUse">
<stop stop-color="#EAE8FF"/>
<stop offset="1" stop-color="#514AF1"/>
</linearGradient>
<linearGradient id="paint6_linear_6139_1930" x1="42.8611" y1="69.17" x2="34.3752" y2="102.709" gradientUnits="userSpaceOnUse">
<stop stop-color="#BAB8FF"/>
<stop offset="1" stop-color="#514AF2"/>
</linearGradient>
<linearGradient id="paint7_linear_6139_1930" x1="-3.20513" y1="80.8886" x2="21.4443" y2="102.305" gradientUnits="userSpaceOnUse">
<stop stop-color="#524BF5"/>
<stop offset="1" stop-color="#150F96" stop-opacity="0"/>
</linearGradient>
<linearGradient id="paint8_linear_6139_1930" x1="65.2881" y1="74.019" x2="26.4955" y2="98.2644" gradientUnits="userSpaceOnUse">
<stop stop-color="#EAE8FF"/>
<stop offset="1" stop-color="#514AF3" stop-opacity="0"/>
</linearGradient>
<linearGradient id="paint9_linear_6139_1930" x1="23.4619" y1="90.5845" x2="55.386" y2="126.954" gradientUnits="userSpaceOnUse">
<stop stop-color="#938FF7"/>
<stop offset="1" stop-color="#5F58FF" stop-opacity="0"/>
</linearGradient>
<linearGradient id="paint10_linear_6139_1930" x1="46.0917" y1="123.721" x2="31.9481" y2="103.92" gradientUnits="userSpaceOnUse">
<stop stop-color="#150F96"/>
<stop offset="1" stop-color="#6059FF" stop-opacity="0"/>
</linearGradient>
<linearGradient id="paint11_linear_6139_1930" x1="24.4722" y1="90.5845" x2="28.9173" y2="94.6255" gradientUnits="userSpaceOnUse">
<stop stop-color="white"/>
<stop offset="1" stop-color="#D3D1FD" stop-opacity="0"/>
</linearGradient>
</defs>
</svg>
