<svg width="30" height="30" viewBox="0 0 30 30" fill="none" xmlns="http://www.w3.org/2000/svg">
<g clip-path="url(#clip0_6137_82202)">
<g clip-path="url(#clip1_6137_82202)">
<path d="M14.9987 0C6.71577 0 0 6.71577 0 14.9987C0 23.2817 6.71577 29.9975 14.9987 29.9975C23.2817 29.9975 29.9975 23.2817 29.9975 14.9987C29.9975 6.71577 23.2842 0 14.9987 0ZM21.6373 19.8852H19.8287V11.4559C19.8287 11.181 19.505 11.0371 19.2995 11.2169L15.8928 14.2126V19.8802H14.1483V13.7655C14.1483 13.4007 14.061 13.0667 13.8863 12.7713C13.7116 12.4732 13.4752 12.2369 13.1798 12.0647C12.8869 11.8926 12.5503 11.8053 12.1829 11.8053H12.1187C11.7513 11.8053 11.4148 11.8926 11.1219 12.0647C10.8264 12.2369 10.5901 12.4732 10.4154 12.7713C10.2432 13.0667 10.1533 13.4007 10.1533 13.7655V19.8802H8.40883V13.7655C8.40883 13.131 8.55785 12.5452 8.85073 12.0159C9.14618 11.4867 9.57523 11.0602 10.1302 10.7493C10.6825 10.4385 11.3557 10.2792 12.1316 10.2792H12.1649C12.9383 10.2792 13.614 10.4359 14.1663 10.7493C14.7213 11.0628 15.1529 11.4892 15.4458 12.0159C15.4869 12.0879 15.5228 12.1624 15.5588 12.2369L17.4137 10.608C17.46 10.5669 17.519 10.5438 17.5833 10.5438H21.3805C21.5218 10.5438 21.6348 10.6569 21.6348 10.7982V19.8827L21.6373 19.8852Z" fill="#5F58FF"/>
</g>
</g>
<defs>
<clipPath id="clip0_6137_82202">
<rect width="30" height="30" fill="white"/>
</clipPath>
<clipPath id="clip1_6137_82202">
<rect width="30" height="30" fill="white"/>
</clipPath>
</defs>
</svg>
